<?xml version="1.0" encoding="UTF-8"?>
<svg width="1200pt" height="1200pt" version="1.1" viewBox="0 0 1200 1200" xmlns="http://www.w3.org/2000/svg">
 <path d="m636 564h274.2l54-108-54-108h-274.2zm72-144h157.8l18 36-18 36h-157.8z"/>
 <path d="m636 852h382.2l54-108-54-108h-382.2zm72-144h265.8l18 36-18 36h-265.8z"/>
 <path d="m1090.2 924h-454.2v144h-348v-492h-100.08l124.08-116.28v-183.72h72v141.48l252-254.52v113.04h202.2l54-108-54-108h-202.2l-180 182.52v-38.52h-216v224.52l-234.12 219.48h210.12v492h874.2l54-108zm-382.2-792h85.801l18 36-18 36h-85.801zm337.8 936h-337.8v-72h337.8l18 36z"/>
</svg>
