<?xml version="1.0" encoding="UTF-8"?>
<svg width="1200pt" height="1200pt" version="1.1" viewBox="0 0 1200 1200" xmlns="http://www.w3.org/2000/svg">
 <path d="m281.81 265.6c-100.27 0-181.82 81.562-181.82 181.82 0 66.328 68.672 196.69 136.36 242.9v62.297c0 25.125 20.297 45.422 45.422 45.422s45.469-20.297 45.469-45.422v-62.297c67.688-46.266 136.36-176.58 136.36-242.9 0.046874-100.27-81.516-181.82-181.78-181.82zm0 346.6c-30.328-25.172-90.891-117.05-90.891-164.76 0-50.156 40.781-90.891 90.891-90.891 50.156 0 90.938 40.781 90.938 90.891 0 47.719-60.609 139.6-90.938 164.76z"/>
 <path d="m1100 447.42c0-100.27-81.516-181.82-181.82-181.82-100.27 0-181.82 81.562-181.82 181.82 0 66.328 68.672 196.69 136.36 242.9v62.297c0 25.125 20.344 45.422 45.469 45.422s45.422-20.297 45.422-45.422v-62.297c67.688-46.219 136.4-176.58 136.4-242.9zm-272.76 0c0-50.156 40.781-90.891 90.938-90.891s90.891 40.781 90.891 90.891c0 47.719-60.609 139.6-90.891 164.76-30.328-25.172-90.938-117.05-90.938-164.76z"/>
 <path d="m372.74 843.52h-90.938c-25.125 0-45.422 20.344-45.422 45.469s20.297 45.422 45.422 45.422h90.938c25.125 0 45.422-20.297 45.422-45.422 0-25.172-20.297-45.469-45.422-45.469z"/>
 <path d="m645.47 843.52h-90.938c-25.125 0-45.422 20.344-45.422 45.469s20.297 45.422 45.422 45.422h90.938c25.125 0 45.422-20.297 45.422-45.422 0-25.172-20.297-45.469-45.422-45.469z"/>
 <path d="m918.19 843.52h-90.938c-25.125 0-45.422 20.344-45.422 45.469s20.297 45.422 45.422 45.422h90.938c25.125 0 45.422-20.297 45.422-45.422 0.046875-25.172-20.297-45.469-45.422-45.469z"/>
</svg>
