<?xml version="1.0" encoding="UTF-8"?>
<svg width="1200pt" height="1200pt" version="1.1" viewBox="0 0 1200 1200" xmlns="http://www.w3.org/2000/svg">
 <path d="m198.84 510.56c8.9062-122.81 62.438-233.29 144.42-315.24 90-90.047 214.4-145.74 351.79-145.74 137.39 0 261.74 55.688 351.79 145.74 90.047 90 145.74 214.4 145.74 351.79 0 137.39-55.688 261.74-145.74 351.79-90 90.047-214.4 145.74-351.79 145.74-77.203 0-150.47-17.719-215.95-49.312-4.5469-2.2031-9.0469-4.4531-13.5-6.7969v77.859h7.8281c23.203 0 42 18.844 42 42 0 23.203-18.844 42-42 42h-423.94c-23.203 0-42-18.844-42-42 0-23.203 18.844-42 42-42h7.8281v-94.453c0-33.141 10.688-65.109 28.266-94.359 10.031-16.688 22.453-32.484 36.422-47.109-13.969-14.625-26.391-30.422-36.422-47.109-17.578-29.203-28.266-61.172-28.266-94.359v-94.453h-7.8281c-23.203 0-42-18.844-42-42 0-23.203 18.844-42 42-42h149.39zm224.72 0h49.828c23.203 0 42 18.844 42 42 0 23.203-18.844 42-42 42h-7.8281v94.453c0 33.141-10.688 65.109-28.266 94.312l-1.6406 2.5312c-9.7969 15.797-21.609 30.75-34.828 44.578 9.6562 10.078 18.562 20.766 26.438 31.875 26.719 22.734 56.344 42.094 88.219 57.469 54.141 26.156 115.03 40.781 179.53 40.781 114.19 0 217.6-46.266 292.4-121.08 74.809-74.812 121.08-178.22 121.08-292.4 0-114.18-46.266-217.6-121.08-292.4-74.812-74.809-178.22-121.08-292.4-121.08s-217.6 46.266-292.4 121.08c-66.75 66.75-110.77 156.24-119.48 255.89zm-59.859 407.58c-21.094-18.844-40.5-39.422-58.125-61.547-14.391-18.094-11.391-44.484 6.7031-58.922l1.9688-1.5c19.969-15.656 37.641-34.172 49.969-54.047l1.1719-2.1094c10.031-16.641 16.078-34.031 16.078-51v-94.453h-240.24v94.453c0 16.969 6.0938 34.406 16.078 51.047 12.703 21.094 31.219 40.594 52.078 56.859 2.9531 2.2031 5.7188 4.875 8.1094 7.9688 14.109 18.281 10.734 44.625-7.5469 58.734-21.094 16.359-39.844 36.047-52.641 57.281-10.031 16.641-16.078 34.078-16.078 51.047v94.453h240.24v-94.453c0-16.359-5.5781-33.047-14.859-49.078l-1.2656-1.9688-1.7344-2.8125zm289.31-658.55c0-23.203 18.844-42 42-42 23.203 0 42 18.844 42 42v270.1l118.97 118.97c16.406 16.406 16.406 42.984 0 59.391s-42.984 16.406-59.391 0l-130.69-130.69c-7.9688-7.6406-12.891-18.375-12.891-30.281z"/>
</svg>
