<?xml version="1.0" encoding="UTF-8"?>
<svg width="1200pt" height="1200pt" version="1.1" viewBox="0 0 1200 1200" xmlns="http://www.w3.org/2000/svg">
 <path d="m862.5 75c-144.74 0-262.5 117.75-262.5 262.5 14.438 348.24 510.66 348.14 525 0 0-144.74-117.75-262.5-262.5-262.5zm0 487.5c-124.08 0-225-100.92-225-225 12.328-298.5 437.72-298.4 450 0 0 124.08-100.92 225-225 225z"/>
 <path d="m862.5 187.5c24.656-0.42188 24.656-37.078 0-37.5-24.656 0.42188-24.656 37.078 0 37.5z"/>
 <path d="m768.74 175.13c-21.141 12.703-2.8125 44.438 18.75 32.484 21.141-12.703 2.8125-44.438-18.75-32.484z"/>
 <path d="m725.72 236.9c-21.562-11.953-39.891 19.781-18.75 32.484 21.562 11.953 39.891-19.781 18.75-32.484z"/>
 <path d="m712.5 337.5c-0.42188-24.656-37.078-24.656-37.5 0 0.42188 24.656 37.078 24.656 37.5 0z"/>
 <path d="m706.97 405.66c-21.141 12.703-2.8125 44.438 18.75 32.484 21.141-12.703 2.8125-44.438-18.75-32.484z"/>
 <path d="m787.5 467.39c-21.562-11.953-39.891 19.781-18.75 32.484 21.562 11.953 39.891-19.781 18.75-32.484z"/>
 <path d="m862.5 487.5c-24.656 0.42188-24.656 37.078 0 37.5 24.656-0.42188 24.656-37.078 0-37.5z"/>
 <path d="m937.5 467.39c-21.141 12.703-2.8125 44.438 18.75 32.484 21.141-12.703 2.8125-44.438-18.75-32.484z"/>
 <path d="m1018 405.66c-21.562-11.953-39.891 19.781-18.75 32.484 21.562 11.953 39.891-19.781 18.75-32.484z"/>
 <path d="m1031.3 318.74c-24.656 0.42187-24.656 37.078 0 37.5 24.656-0.42188 24.656-37.078 0-37.5z"/>
 <path d="m1018 269.34c21.141-12.703 2.8125-44.438-18.75-32.484-21.141 12.703-2.8125 44.438 18.75 32.484z"/>
 <path d="m956.26 175.13c-21.562-11.953-39.891 19.781-18.75 32.484 21.562 11.953 39.891-19.781 18.75-32.484z"/>
 <path d="m862.5 356.26h75c24.609-0.42187 24.656-37.078 0-37.5h-56.25v-75c-0.375-24.609-37.078-24.656-37.5 0v93.75c0 10.359 8.3906 18.75 18.75 18.75z"/>
 <path d="m583.6 803.26-55.734-7.0312c-2.5781-7.4062-5.5781-14.578-8.9062-21.516l34.453-44.344c5.7656-7.4531 5.1094-18.094-1.5469-24.75l-57.469-57.469c-6.7031-6.7031-17.344-7.3125-24.75-1.5469l-44.344 34.453c-6.9375-3.3281-14.109-6.3281-21.516-8.9062l-7.0312-55.734c-1.1719-9.375-9.1406-16.406-18.609-16.406h-81.281c-9.4688 0-17.391 7.0312-18.609 16.406l-7.0312 55.734c-7.4062 2.5781-14.578 5.5781-21.516 8.9062l-44.344-34.453c-7.4531-5.7656-18.047-5.1562-24.75 1.5469l-57.469 57.469c-6.7031 6.7031-7.3594 17.297-1.5469 24.75l34.453 44.344c-3.3281 6.9375-6.3281 14.109-8.9062 21.516l-55.734 7.0312c-9.375 1.1719-16.406 9.1406-16.406 18.609v81.281c0 9.4688 7.0312 17.391 16.406 18.609l55.734 7.0312c2.5781 7.4062 5.5781 14.578 8.9062 21.516l-34.453 44.344c-5.7656 7.4531-5.1094 18.094 1.5469 24.75l57.469 57.469c6.7031 6.7031 17.344 7.3125 24.75 1.5469l44.344-34.453c6.9375 3.3281 14.109 6.3281 21.516 8.9062l7.0312 55.734c1.1719 9.375 9.1406 16.406 18.609 16.406h81.281c9.4688 0 17.391-7.0312 18.609-16.406l7.0312-55.734c7.4062-2.5781 14.578-5.5781 21.516-8.9062l44.344 34.453c7.4062 5.7656 18.047 5.1562 24.75-1.5469l57.469-57.469c6.7031-6.7031 7.3594-17.297 1.5469-24.75l-34.453-44.344c3.3281-6.9375 6.3281-14.109 8.9062-21.516l55.734-7.0312c9.375-1.1719 16.406-9.1406 16.406-18.609v-81.281c0-9.4688-7.0312-17.391-16.406-18.609zm-21.094 83.344-51.234 6.4688c-7.4531 0.9375-13.641 6.2344-15.703 13.453-2.1562 19.453-25.969 40.031-13.641 57.281l31.688 40.781-34.078 34.078-40.781-31.688c-17.109-12.281-37.922 11.484-57.281 13.641-7.2188 2.0625-12.516 8.25-13.453 15.703l-6.4688 51.234h-48.188l-6.4688-51.234c-0.9375-7.4531-6.2344-13.641-13.453-15.703-19.453-2.1562-40.031-25.922-57.281-13.641l-40.781 31.688-34.078-34.078 31.688-40.781c12.281-17.109-11.484-37.922-13.641-57.281-2.0625-7.2188-8.25-12.516-15.703-13.453l-51.234-6.4688v-48.188l51.234-6.4688c7.4531-0.9375 13.641-6.2344 15.703-13.453 2.1562-19.453 25.969-40.031 13.641-57.281l-31.688-40.781 34.078-34.078 40.781 31.688c17.109 12.234 37.922-11.484 57.281-13.641 7.2188-2.0625 12.516-8.25 13.453-15.703l6.4688-51.234h48.188l6.4688 51.234c0.9375 7.4531 6.2344 13.641 13.453 15.703 19.453 2.1562 39.984 25.922 57.281 13.641l40.781-31.688 34.078 34.078-31.688 40.781c-12.281 17.109 11.484 37.922 13.641 57.281 2.0625 7.2188 8.25 12.516 15.703 13.453l51.234 6.4688z"/>
 <path d="m337.5 742.18c-66.328 0-120.32 54-120.32 120.32 6.0469 159.37 234.61 159.37 240.66 0 0-66.328-54-120.32-120.32-120.32zm0 203.16c-109.45-3.4688-109.41-162.19 0-165.66 109.45 3.4688 109.41 162.19 0 165.66z"/>
 <path d="m993.74 656.26c-10.359 0-18.75 8.3906-18.75 18.75v225c0 31.031-25.219 56.25-56.25 56.25h-217.22l42.984-42.984c17.297-17.391-9.1406-43.781-26.531-26.531l-74.953 74.953c-7.2656 6.9375-7.2656 19.594 0 26.578l74.953 74.953c17.438 17.203 43.781-9.0469 26.531-26.531l-42.984-42.984h217.22c51.703 0 93.75-42.047 93.75-93.75v-225c0-10.359-8.3906-18.75-18.75-18.75z"/>
 <path d="m206.26 543.74c10.359 0 18.75-8.3906 18.75-18.75v-225c0-31.031 25.219-56.25 56.25-56.25h217.22l-42.984 42.984c-17.297 17.391 9.1406 43.781 26.531 26.531l74.953-74.953c7.2656-6.9375 7.2656-19.594 0-26.578l-74.953-74.953c-17.438-17.203-43.781 9.0469-26.531 26.531l42.984 42.984h-217.22c-51.703 0-93.75 42.047-93.75 93.75v225c0 10.359 8.3906 18.75 18.75 18.75z"/>
</svg>
